<svg width="164" height="50" viewBox="0 0 164 50" fill="none" xmlns="http://www.w3.org/2000/svg">
<path fill-rule="evenodd" clip-rule="evenodd" d="M101.738 39.2349C92.2428 46.2553 78.4323 49.9956 66.5207 49.9956C49.833 49.9956 34.8716 43.8384 23.4779 33.5956C22.6148 32.79 23.3628 31.6967 24.4562 32.3297C36.713 39.4651 51.847 43.7234 67.499 43.7234C78.0295 43.7234 89.6534 41.5367 100.357 36.9907C101.968 36.3577 103.291 38.0841 101.738 39.2349Z" fill="#FF9900"/>
<path fill-rule="evenodd" clip-rule="evenodd" d="M105.708 34.6881C104.5 33.1344 97.652 33.9401 94.6021 34.3429C93.6814 34.458 93.5088 33.6523 94.372 33.0769C99.8386 29.2215 108.758 30.3723 109.794 31.6383C110.829 32.9043 109.506 41.8811 104.385 46.1394C103.579 46.7724 102.831 46.4271 103.176 45.5639C104.327 42.6867 106.917 36.2994 105.708 34.6881Z" fill="#FF9900"/>
<path fill-rule="evenodd" clip-rule="evenodd" d="M94.7748 6.03218L94.7748 2.29183C94.7748 1.71639 95.1776 1.37113 95.6954 1.37113L112.383 1.37113C112.901 1.37113 113.361 1.77394 113.361 2.29184L113.361 5.45675C113.361 5.97464 112.901 6.66517 112.095 7.81605L103.464 20.1304C106.686 20.0729 110.081 20.5332 112.959 22.1445C113.592 22.4897 113.764 23.0652 113.822 23.5831L113.822 27.5536C113.822 28.129 113.246 28.762 112.613 28.4168C107.492 25.7122 100.644 25.4245 95.0049 28.4743C94.4295 28.762 93.7965 28.1866 93.7965 27.6111L93.7965 23.8132C93.7965 23.2378 93.7965 22.202 94.4295 21.2813L104.442 6.95289L95.753 6.95289C95.2351 6.95289 94.7748 6.55008 94.7748 6.03218ZM33.9509 29.2223L28.887 29.2223C28.4267 29.1648 28.0239 28.8195 27.9663 28.3592L27.9663 2.34937C27.9663 1.83147 28.4267 1.42866 28.9446 1.42866L33.6632 1.42866C34.1811 1.42866 34.5263 1.83147 34.5839 2.29182L34.5839 5.68691L34.699 5.68691C35.9074 2.40691 38.2667 0.853226 41.374 0.853226C44.539 0.853227 46.553 2.40691 47.934 5.68691C49.1425 2.40691 51.9621 0.853228 54.9544 0.853228C57.0835 0.853229 59.3853 1.71639 60.8239 3.73042C62.4351 5.91709 62.0898 9.08201 62.0898 11.9017L62.0898 28.3592C62.0898 28.8771 61.6295 29.2799 61.1116 29.2799L56.1053 29.2799C55.5874 29.2224 55.1846 28.8195 55.1846 28.3592L55.1846 14.5487C55.1846 13.4553 55.2997 10.6932 55.0695 9.65743C54.6667 7.93112 53.5733 7.41323 52.0772 7.41323C50.8688 7.41323 49.5453 8.21885 49.0274 9.54236C48.5095 10.8659 48.567 13.0525 48.567 14.5487L48.567 28.3592C48.567 28.8771 48.1067 29.2799 47.5888 29.2799L42.5249 29.2799C42.007 29.2224 41.6042 28.8195 41.6042 28.3592L41.6042 14.5487C41.6042 11.6715 42.0646 7.35568 38.4968 7.35568C34.8716 7.35568 34.9867 11.4988 34.9867 14.5487L34.9867 28.3592C34.9291 28.8195 34.5263 29.2223 33.9509 29.2223ZM127.747 0.853241C135.286 0.853243 139.371 7.29816 139.371 15.5269C139.371 23.468 134.883 29.7978 127.747 29.7978C120.382 29.7978 116.354 23.3529 116.354 15.2968C116.296 7.18307 120.382 0.85324 127.747 0.853241ZM127.747 6.20481C124.007 6.20481 123.777 11.3262 123.777 14.4911C123.777 17.6561 123.719 24.4462 127.69 24.4462C131.603 24.4462 131.833 18.9796 131.833 15.642C131.833 13.4554 131.718 10.8083 131.085 8.73676C130.509 6.89536 129.359 6.20481 127.747 6.20481ZM149.096 29.2224L144.032 29.2224C143.514 29.1648 143.112 28.762 143.112 28.3017L143.112 2.23429C143.169 1.77394 143.572 1.37114 144.09 1.37114L148.808 1.37114C149.269 1.37114 149.614 1.71641 149.729 2.11922L149.729 6.08974L149.844 6.08974C151.283 2.52202 153.239 0.853246 156.749 0.853246C158.994 0.853247 161.238 1.65885 162.677 3.90307C164 5.97465 164 9.48483 164 12.0168L164 28.4168C163.942 28.8771 163.54 29.2224 163.022 29.2224L157.958 29.2224C157.498 29.1648 157.095 28.8196 157.037 28.4168L157.037 14.261C157.037 11.3838 157.382 7.24062 153.872 7.24062C152.664 7.24062 151.513 8.04624 150.938 9.3122C150.247 10.9234 150.132 12.4771 150.132 14.261L150.132 28.3017C150.074 28.8196 149.614 29.2224 149.096 29.2224ZM81.4821 16.7929C81.4821 18.7494 81.5397 20.4182 80.5614 22.202C79.7558 23.6406 78.4898 24.5038 77.0512 24.5038C75.0947 24.5038 73.9439 23.0076 73.9439 20.821C73.9439 16.5052 77.7993 15.6995 81.4821 15.6995L81.4821 16.7929ZM86.6035 29.1648C86.2582 29.4525 85.7979 29.5101 85.3951 29.2799C83.7263 27.8989 83.3811 27.2083 82.4604 25.8848C79.6982 28.7045 77.6842 29.5676 74.1165 29.5676C69.8582 29.5676 66.5207 26.9206 66.5207 21.6841C66.5207 17.541 68.7649 14.7788 71.9298 13.3978C74.6919 12.1894 78.5474 11.9592 81.4821 11.6139L81.4821 10.981C81.4821 9.77254 81.5972 8.33394 80.8491 7.29815C80.2161 6.37745 79.0653 5.97463 78.0295 5.97463C76.073 5.97463 74.3467 6.95289 73.9439 9.02447C73.8288 9.48482 73.5411 9.94516 73.0807 9.94516L68.1895 9.42726C67.7867 9.31218 67.3263 9.02446 67.4414 8.39148C68.5923 2.40692 73.9439 0.62306 78.7775 0.623061C81.2519 0.623061 84.4744 1.25604 86.4309 3.15499C88.9053 5.45674 88.6751 8.56412 88.6751 11.9017L88.6751 19.7852C88.6751 22.1445 89.6533 23.1803 90.574 24.5038C90.9193 24.9641 90.9768 25.5396 90.574 25.8273C89.4807 26.6904 87.6393 28.3017 86.6035 29.1648ZM15.019 16.7929C15.019 18.7494 15.0765 20.4181 14.0982 22.202C13.2926 23.6406 12.0267 24.5038 10.5881 24.5038C8.63157 24.5038 7.4807 23.0076 7.4807 20.821C7.4807 16.5052 11.3361 15.6995 15.019 15.6995L15.019 16.7929ZM20.0828 29.1648C19.7375 29.4525 19.2772 29.5101 18.8744 29.2799C17.2056 27.8988 16.8603 27.2083 15.9396 25.8848C13.1775 28.7045 11.1635 29.5676 7.59578 29.5676C3.33754 29.5676 -4.59801e-06 26.9206 -3.68243e-06 21.6841C-2.95802e-06 17.5409 2.2442 14.7788 5.40912 13.3978C8.17122 12.1894 12.0267 11.9592 14.9614 11.6139L14.9614 10.9809C14.9614 9.77253 15.0765 8.33393 14.3284 7.29814C13.6954 6.37744 12.5446 5.97462 11.5088 5.97462C9.55228 5.97462 7.82596 6.95288 7.42315 9.02446C7.30807 9.48481 7.02035 9.94514 6.56 9.94514L1.66877 9.42725C1.26596 9.31217 0.805616 9.02445 0.920704 8.39147C2.07158 2.40691 7.42316 0.623048 12.2568 0.623049C14.7312 0.623049 17.9537 1.25603 19.9102 3.15498C22.3846 5.45673 22.1544 8.56411 22.1544 11.9017L22.1544 19.7852C22.1544 22.1445 23.1326 23.1803 24.0533 24.5038C24.3986 24.9641 24.4561 25.5395 24.0533 25.8273C22.96 26.6904 21.1186 28.3017 20.0828 29.1648Z" fill="black"/>
</svg>
