 <svg
      xmlns="http://www.w3.org/2000/svg"
      width="162"
      height="21"
      fill="none"
      viewBox="0 0 162 21"
    >
      <path
        fill="#000"
        d="M34.905 15c-.67 0-1.355.008-2.058.025l-.034-.357 1.021-.307c.144-.044.22-.13.225-.258.005-.22.008-.467.008-.738.005-.277.008-.581.008-.913V5.72c0-.282-.003-.537-.008-.764 0-.227-.003-.432-.008-.614-.006-.144-.072-.238-.2-.282l-1.029-.324-.017-.357c.714.022 1.409.033 2.084.033.553 0 1.087-.014 1.602-.041a29.543 29.543 0 011.585-.042c1.937 0 3.393.443 4.367 1.328.974.88 1.46 2.189 1.46 3.927 0 2.047-.542 3.638-1.626 4.772-1.08 1.13-2.596 1.694-4.55 1.694-.536 0-1.015-.009-1.435-.025-.42-.017-.886-.025-1.395-.025zm.797-.739c.327.045.645.075.955.091.315.012.63.017.946.017 1.461 0 2.573-.429 3.337-1.287.764-.863 1.145-2.183 1.145-3.959 0-1.727-.362-3.005-1.087-3.835-.725-.836-1.873-1.253-3.445-1.253-.249 0-.525.005-.83.016-.299.011-.639.03-1.02.058v10.152zm17.232.15a5.15 5.15 0 01-1.453.63c-.498.128-.96.191-1.386.191-1.217 0-2.189-.345-2.913-1.037-.726-.697-1.088-1.663-1.088-2.897 0-1.229.346-2.233 1.038-3.013.697-.78 1.627-1.17 2.789-1.17.974 0 1.732.293 2.274.88.542.58.814 1.385.814 2.415 0 .155-.009.312-.025.473H47.72c0 1.19.28 2.042.838 2.557.56.509 1.434.763 2.623.763.532 0 1.099-.05 1.702-.15l.05.358zm-1.577-4.217v-.25c0-.785-.127-1.347-.382-1.684-.25-.338-.623-.507-1.12-.507-.66 0-1.163.238-1.511.714-.35.476-.546 1.052-.59 1.727h3.603zM62.38 8.733a3.2 3.2 0 01.116.896v2.964c0 .647.005 1.167.016 1.56.011.15.083.247.216.29l.838.242.017.34A74.959 74.959 0 0061.757 15c-.542 0-1.145.008-1.81.025l-.033-.34.789-.233c.16-.055.243-.144.249-.265.005-.078.008-.252.008-.523v-3.62c0-.68-.155-1.167-.465-1.46-.31-.3-.769-.449-1.378-.449-.536 0-1.084.16-1.643.482v3.627c0 .692.005 1.325.016 1.901.006.166.064.26.175.282l.88.258.016.34c-.686-.017-1.3-.025-1.843-.025-.542 0-1.184.008-1.925.025l-.034-.34.955-.283c.138-.038.21-.124.216-.257.005-.293.008-.634.008-1.021v-2.83c0-.725-.01-1.398-.033-2.018L54.8 7.978l-.042-.283c.913-.177 1.788-.37 2.623-.58l.084.057v.963c.907-.68 1.767-1.02 2.581-1.02.996 0 1.716.384 2.158 1.153.875-.77 1.824-1.154 2.847-1.154.77 0 1.37.219 1.802.656.437.432.655 1.051.655 1.86v2.938c0 .697.006 1.212.017 1.544.011.15.086.246.224.29l.921.283.017.34a85.434 85.434 0 00-1.91-.025c-.547 0-1.15.008-1.809.025l-.033-.34.822-.241c.127-.044.2-.13.216-.258.005-.077.008-.251.008-.522v-3.62c0-.68-.158-1.167-.473-1.46-.316-.3-.78-.449-1.395-.449-.62 0-1.198.2-1.735.598zm9.636 2.349c0 1.035.194 1.879.581 2.532.388.647.963.971 1.727.971.714 0 1.256-.285 1.627-.855.376-.575.564-1.425.564-2.548 0-1.057-.196-1.89-.59-2.499-.392-.609-.962-.913-1.71-.913-.708 0-1.253.274-1.635.822-.376.548-.564 1.378-.564 2.49zm6.192-.075c0 1.262-.381 2.283-1.145 3.063-.758.775-1.724 1.162-2.897 1.162-1.145 0-2.072-.365-2.78-1.095-.704-.736-1.055-1.696-1.055-2.88 0-1.218.368-2.211 1.104-2.98.742-.775 1.721-1.163 2.939-1.163 1.15 0 2.078.357 2.78 1.071.703.708 1.055 1.65 1.055 2.822zm9.587 1.445v.904c.005.272.01.518.016.74.006.138.102.232.29.281l.939.291.016.357a88.663 88.663 0 00-4.117 0l-.033-.357 1.02-.307c.14-.039.214-.125.225-.258.005-.22.008-.467.008-.738.006-.277.009-.581.009-.913V5.72c0-.282-.003-.537-.009-.764 0-.227-.003-.432-.008-.614-.006-.144-.072-.238-.2-.282l-1.028-.324-.017-.357a65.968 65.968 0 004.117 0l.033.357-1.029.307c-.133.033-.205.119-.216.257l-.017.64v7.512zm3.236-4.757c.93-.177 1.807-.37 2.631-.58l.084.057v.963c.962-.68 1.859-1.02 2.689-1.02.786 0 1.4.22 1.843.663.448.437.672 1.06.672 1.868v2.93c0 .692.006 1.204.017 1.536.005.15.077.246.216.29l.921.283.017.34a85.512 85.512 0 00-1.91-.025c-.542 0-1.145.008-1.81.025l-.032-.34.83-.241c.127-.044.196-.13.207-.258.006-.077.008-.251.008-.522v-3.62c0-.68-.163-1.167-.49-1.46-.326-.3-.807-.449-1.444-.449-.559 0-1.137.16-1.734.482v3.627c0 .692.005 1.325.016 1.901.006.15.07.244.191.282l.863.258.017.34c-.686-.017-1.3-.025-1.843-.025-.542 0-1.184.008-1.926.025l-.033-.34.98-.283c.121-.05.185-.135.19-.257.006-.354.009-.694.009-1.021v-2.83c0-.725-.011-1.398-.033-2.018l-1.104-.298-.042-.283zm14.833.258a3.925 3.925 0 00-1.046-.133c-.52 0-.941.102-1.262.307-.315.2-.473.473-.473.822 0 .337.103.603.307.797.211.193.598.384 1.162.572l.681.233c.764.26 1.323.559 1.677.896.36.332.539.77.539 1.312 0 .769-.298 1.375-.896 1.818-.598.437-1.353.655-2.266.655-.841 0-1.702-.171-2.582-.514.188-.72.341-1.422.457-2.109l.324-.05.597 1.785c.316.122.717.183 1.204.183.515 0 .924-.105 1.228-.316.31-.21.465-.506.465-.888 0-.354-.105-.633-.315-.838-.205-.205-.534-.382-.988-.531l-.863-.29c-.747-.25-1.265-.549-1.553-.897-.282-.355-.423-.792-.423-1.312 0-.725.274-1.295.822-1.71.553-.42 1.281-.63 2.183-.63.841 0 1.605.121 2.291.364-.155.631-.296 1.298-.423 2.001l-.316.058-.531-1.585zm9.437 6.317c-.863.642-1.726.962-2.59.962-.868 0-1.521-.22-1.958-.664-.432-.442-.648-1.065-.648-1.867v-1.76c0-1.184-.011-2.073-.033-2.665l-1.104-.298-.042-.283c.969-.177 1.865-.37 2.69-.58l.074.057c-.033.648-.049 1.48-.049 2.499v2.64c0 .67.157 1.156.473 1.46.315.3.761.449 1.336.449.576 0 1.165-.152 1.768-.457v-3.536c0-.775-.011-1.425-.033-1.95l-1.096-.3-.041-.282c.963-.177 1.857-.37 2.681-.58l.075.057a53.15 53.15 0 00-.05 2.549c0 2.008.006 3.234.017 3.677.005.227.022.41.049.548a.622.622 0 00.158.324.725.725 0 00.34.157c.155.028.36.045.615.05l.041.324c-.254.1-.548.194-.88.282-.332.094-.559.141-.68.141-.559 0-.93-.318-1.113-.954zm4.233-6.575c.924-.177 1.801-.37 2.631-.58l.083.057v.972c1.024-.687 2.029-1.03 3.014-1.03l.041.05c-.16.825-.318 1.68-.473 2.565l-.332.058a8.22 8.22 0 00-.448-1.129c-.144-.288-.371-.431-.681-.431-.299 0-.672.138-1.121.415v3.594c0 .863.006 1.48.017 1.85.006.15.075.244.208.283l1.104.316.024.34c-.863-.017-1.566-.025-2.108-.025s-1.184.008-1.926.025l-.033-.34.963-.283c.133-.044.202-.13.207-.257.006-.238.009-.578.009-1.021v-2.83c0-.903-.011-1.575-.033-2.018l-1.104-.298-.042-.283zm11.546 3.545c-1.212 0-2.039.119-2.482.357-.443.238-.664.639-.664 1.203 0 .526.146.9.44 1.12.293.217.691.325 1.195.325.57 0 1.068-.097 1.494-.29l.017-2.715zm-4.026-3.42c1.079-.47 2.034-.706 2.864-.706.846 0 1.505.222 1.975.664.476.443.711 1.082.706 1.918l-.042 3.453c-.005.282 0 .509.017.68a.775.775 0 00.149.399.718.718 0 00.366.19c.16.034.376.054.647.06l.042.323a8.61 8.61 0 01-.872.282c-.343.094-.576.141-.697.141-.537 0-.905-.277-1.104-.83-.775.559-1.506.838-2.192.838-.769 0-1.389-.188-1.859-.564-.465-.382-.697-.919-.697-1.61 0-.853.379-1.48 1.137-1.885.764-.404 1.959-.606 3.586-.606l.008-.647c.006-.62-.152-1.08-.473-1.378-.321-.299-.814-.448-1.478-.448-.503 0-1.134.094-1.892.282l-.191-.556zm8.234-.125c.929-.177 1.806-.37 2.631-.58l.083.057v.963c.963-.68 1.859-1.02 2.689-1.02.786 0 1.4.22 1.843.663.448.437.673 1.06.673 1.868v2.93c0 .692.005 1.204.016 1.536.006.15.078.246.216.29l.921.283.017.34a85.417 85.417 0 00-1.909-.025c-.543 0-1.146.008-1.81.025l-.033-.34.83-.241c.127-.044.197-.13.208-.258.005-.077.008-.251.008-.522v-3.62c0-.68-.163-1.167-.49-1.46-.326-.3-.808-.449-1.444-.449-.559 0-1.137.16-1.735.482v3.627c0 .692.006 1.325.017 1.901.005.15.069.244.19.282l.864.258.016.34a76.94 76.94 0 00-1.842-.025c-.543 0-1.185.008-1.926.025l-.033-.34.979-.283c.122-.05.185-.135.191-.257.006-.354.008-.694.008-1.021v-2.83c0-.725-.011-1.398-.033-2.018l-1.104-.298-.041-.283zm17.397 6.716c-.343.232-.769.428-1.278.589a5.088 5.088 0 01-1.502.232c-1.196 0-2.142-.348-2.839-1.045-.698-.703-1.046-1.638-1.046-2.806 0-1.267.396-2.294 1.187-3.08.791-.791 1.815-1.187 3.071-1.187.814 0 1.602.166 2.366.498-.183.742-.346 1.5-.49 2.275l-.324.05-.672-1.993a2.618 2.618 0 00-.863-.132c-.825 0-1.469.287-1.934.863-.465.575-.698 1.336-.698 2.282 0 1.113.263 1.935.789 2.466.526.531 1.359.797 2.499.797.525 0 1.087-.053 1.685-.158l.049.349zm8.384 0a5.16 5.16 0 01-1.453.63 5.62 5.62 0 01-1.386.191c-1.218 0-2.189-.345-2.914-1.037-.725-.697-1.087-1.663-1.087-2.897 0-1.229.346-2.233 1.037-3.013.698-.78 1.627-1.17 2.789-1.17.974 0 1.732.293 2.275.88.542.58.813 1.385.813 2.415 0 .155-.008.312-.025.473h-5.262c0 1.19.279 2.042.838 2.557.559.509 1.433.763 2.623.763.531 0 1.099-.05 1.702-.15l.05.358zm-1.578-4.217v-.25c0-.785-.127-1.347-.381-1.684-.249-.338-.623-.507-1.121-.507-.659 0-1.162.238-1.511.714-.348.476-.545 1.052-.589 1.727h3.602z"
      ></path>
      <path
        fill="#0B1728"
        d="M10.99 20.325a22.43 22.43 0 01-9.281-10.73A22.461 22.461 0 01.004.985H0V0h1.97v.985h-.003A20.478 20.478 0 007.069 14.54a15.698 15.698 0 002.498-1.749A17.504 17.504 0 015 .986h-.004V0h1.97v.986h-.003a15.512 15.512 0 004.548 10.988 15.51 15.51 0 005.235 3.448 22.625 22.625 0 01-1.41 1.537 17.496 17.496 0 01-4.359-2.789 17.52 17.52 0 01-2.5 1.821 20.515 20.515 0 004.352 3.115 22.028 22.028 0 01-1.839 1.219z"
      ></path>
      <path
        fill="#36A9E1"
        d="M21.878 2.985a22.432 22.432 0 01-4.49 11.6l-.267-.106-.184-.074a14.452 14.452 0 01-1.382-.66A20.467 20.467 0 0019.9 2.985h1.977z"
      ></path>
      <path
        fill="#36A9E1"
        d="M7.98 0h14a22.861 22.861 0 01-.003 1.971H16.94a17.429 17.429 0 01-3.889 10.047 14.582 14.582 0 01-1.406-1.38 15.517 15.517 0 003.33-8.666H8.009a14.415 14.415 0 01-.03-.639V0z"
      ></path>
    </svg>