
    <svg
      xmlns="http://www.w3.org/2000/svg"
      width="15"
      height="15"
      fill="none"
      viewBox="0 0 15 15"
    >
      <g fill="#145C9E" clip-path="url(#clip0)">
        <path d="M4.743 7.093a2.41 2.41 0 00-1.717.708l-2.29 2.291a2.43 2.43 0 000 3.433l.763.764a2.428 2.428 0 003.434 0l2.29-2.29c.792-.806.93-2.048.337-3.008l-.802.802a1.343 1.343 0 01-.3 1.444l-2.288 2.29a1.35 1.35 0 01-1.908 0l-.764-.764a1.35 1.35 0 010-1.908l2.29-2.288a1.341 1.341 0 011.443-.3l.803-.803a2.401 2.401 0 00-1.29-.371z"></path>
        <path d="M9.959 5.448l-.382-.382a.27.27 0 00-.381 0L4.998 9.263a.27.27 0 000 .382l.382.382a.277.277 0 00.382 0l4.197-4.198a.27.27 0 000-.381z"></path>
        <path d="M12.023 7.199l2.29-2.291a2.43 2.43 0 000-3.434L13.55.711a2.428 2.428 0 00-3.433 0l-2.29 2.29A2.451 2.451 0 007.49 6.01l.801-.802a1.342 1.342 0 01.3-1.443l2.288-2.29a1.35 1.35 0 011.909 0l.764.763a1.351 1.351 0 010 1.908L11.26 6.433c-.378.38-.945.498-1.443.3l-.802.802a2.431 2.431 0 003.007-.336z"></path>
      </g>
      <defs>
        <clipPath id="clip0">
          <path fill="#fff" d="M0 0H15V15H0z"></path>
        </clipPath>
      </defs>
    </svg>
