<?xml version="1.0" encoding="UTF-8" standalone="no"?>
<!DOCTYPE svg PUBLIC "-//W3C//DTD SVG 1.1//EN" "http://www.w3.org/Graphics/SVG/1.1/DTD/svg11.dtd">
<svg width="100%" height="100%" viewBox="0 0 500 500" version="1.1" xmlns="http://www.w3.org/2000/svg" xmlns:xlink="http://www.w3.org/1999/xlink" xml:space="preserve" xmlns:serif="http://www.serif.com/" style="fill-rule:evenodd;clip-rule:evenodd;stroke-linejoin:round;stroke-miterlimit:2;">
    <g transform="matrix(1,0,0,1,-7170,-289.368)">
        <g>
            <g transform="matrix(0.309196,0,0,0.9589,6509.57,5.86538)">
                <path d="M3753.06,347.797C3753.06,319.018 3680.6,295.654 3591.35,295.654L2297.68,295.654C2208.43,295.654 2135.97,319.018 2135.97,347.797L2135.97,764.941C2135.97,793.72 2208.43,817.084 2297.68,817.084L3591.35,817.084C3680.6,817.084 3753.06,793.72 3753.06,764.941L3753.06,347.797Z" style="fill:rgb(20,92,158);"/>
            </g>
            <g transform="matrix(1.5,0,0,1.5,6401.42,130.283)">
                <g transform="matrix(1.68785,0,0,1.68785,710.702,166.311)">
                    <path d="M0,125.656C-0.847,125.91 -1.682,126.312 -2.533,126.357C-4.431,126.469 -6.345,126.402 -8.254,126.402C-14.017,126.402 -14.002,126.387 -16.21,121.195C-29.149,90.715 -42.1,60.234 -55.057,29.753C-58.884,20.734 -62.737,11.723 -66.56,2.697C-66.959,1.76 -67.202,0.768 -67.687,-0.728C-63.132,-0.728 -58.981,-0.813 -54.84,-0.642C-54.206,-0.616 -53.394,0.488 -53.069,1.264C-45.781,18.332 -38.571,35.43 -31.305,52.505C-23.976,69.76 -16.617,87.014 -9.224,104.231C-8.583,105.753 -7.624,107.156 -6.804,108.61C-4.532,114.295 -2.272,119.979 0,125.656" style="fill:white;"/>
                </g>
                <g transform="matrix(1.68785,0,0,1.68785,710.702,164.78)">
                    <path d="M0,126.563C-2.272,120.886 -4.532,115.202 -6.804,109.517C8.329,73.942 23.472,38.359 38.529,2.742C39.373,0.769 40.368,0 42.521,0.123C46.034,0.321 49.555,0.179 53.579,0.179C53.147,1.433 52.882,2.376 52.498,3.287C35.154,44.133 17.776,84.974 0.414,125.817C0.306,126.078 0.138,126.316 0,126.563" style="fill:white;"/>
                </g>
                <g transform="matrix(1.68785,0,0,1.68785,574.863,379.69)">
                    <path d="M0,-127.178C2.193,-127.178 4.122,-127.383 5.976,-127.092C6.967,-126.935 8.318,-126.118 8.694,-125.249C17.128,-105.574 25.446,-85.851 33.823,-66.149C42.718,-45.21 51.644,-24.3 60.559,-3.383C60.954,-2.443 61.245,-1.458 61.73,-0.071C59.567,-0.071 57.724,0.205 56.042,-0.183C55.08,-0.399 54.061,-1.555 53.621,-2.54C49.589,-11.581 45.662,-20.667 41.734,-29.746C35.93,-43.196 30.156,-56.668 24.352,-70.125C16.319,-88.73 8.258,-107.335 0.224,-125.943C0.12,-126.186 0.127,-126.477 0,-127.178" style="fill:white;"/>
                </g>
                <g transform="matrix(1.68785,0,0,1.68785,560,378.393)">
                    <path d="M0,-125.958C2.958,-127.036 4.427,-126.238 5.524,-123.593C12.197,-107.622 19.03,-91.714 25.796,-75.787C32.573,-59.853 39.343,-43.919 46.109,-27.985C49.939,-18.974 53.773,-9.962 57.597,-0.936C57.731,-0.623 57.75,-0.235 57.854,0.295C55.415,1.078 53.837,0.951 52.685,-1.802C44.773,-20.659 36.68,-39.436 28.697,-58.257C20.406,-77.786 12.178,-97.331 3.913,-116.857C2.622,-119.886 1.305,-122.918 0,-125.958" style="fill:white;"/>
                </g>
            </g>
        </g>
    </g>
</svg>
